<!-- Generated by IcoMoon.io -->
<svg version="1.1" xmlns="http://www.w3.org/2000/svg" width="1024" height="1024" viewBox="0 0 1024 1024">
<title></title>
<g id="icomoon-ignore">
</g>
<path fill="#fff" d="M632.446 160c24.241 0 46.402 13.696 57.243 35.378l46.311 92.622h160c35.346 0 64 28.654 64 64v448c0 35.346-28.654 64-64 64h-768c-35.346 0-64-28.654-64-64v-448c0-35.346 28.654-64 64-64h160l46.311-92.622c10.841-21.682 33.002-35.378 57.243-35.378h240.892zM512 352c-123.712 0-224 100.288-224 224s100.288 224 224 224c123.712 0 224-100.288 224-224s-100.288-224-224-224zM512 416c88.366 0 160 71.634 160 160s-71.634 160-160 160c-88.366 0-160-71.634-160-160s71.634-160 160-160zM864 352c-17.673 0-32 14.327-32 32s14.327 32 32 32c17.673 0 32-14.327 32-32s-14.327-32-32-32z"></path>
</svg>
