<!-- Generated by IcoMoon.io -->
<svg version="1.1" xmlns="http://www.w3.org/2000/svg" width="1024" height="1024" viewBox="0 0 1024 1024">
<title></title>
<g id="icomoon-ignore">
</g>
<path fill="#000" d="M480.308 12.677c20.344-8.138 43.040-8.138 63.384 0v0l341.333 136.533c32.398 12.959 53.641 44.337 53.641 79.23v0 297.985c0 149.872-78.634 288.755-207.148 365.864v0l-219.518 131.711-219.518-131.711c-128.514-77.109-207.148-215.991-207.148-365.864v0-297.985c0-34.893 21.244-66.271 53.641-79.23v0zM722.745 296.078l-253.412 253.383-125.412-125.383-90.51 90.51 215.922 215.922 343.922-343.922-90.51-90.51z"></path>
</svg>
