<!-- Generated by IcoMoon.io -->
<svg version="1.1" xmlns="http://www.w3.org/2000/svg" width="1024" height="1024" viewBox="0 0 1024 1024">
<title></title>
<g id="icomoon-ignore">
</g>
<path d="M1024 518.336c0-289.088-229.216-518.336-518.336-518.336-276.448 0-505.664 229.216-505.664 518.336 0 276.448 229.216 505.664 505.664 505.664 289.088 0 518.336-229.216 518.336-505.664zM251.904 532.992c-4.357-4.805-7.024-11.212-7.024-18.242 0-5.779 1.802-11.137 4.875-15.542l-0.058 0.089 3.488-4.736c4.025-5.411 10.4-8.878 17.585-8.878 5.053 0 9.706 1.715 13.408 4.594l-0.049-0.037 111.616 85.088c4.716 3.412 10.616 5.458 16.994 5.458 6.755 0 12.973-2.295 17.919-6.147l-0.065 0.049 310.912-257.6c4.268-3.383 9.732-5.427 15.673-5.427 6.75 0 12.885 2.639 17.427 6.942l-0.012-0.011-2.112-2.048c8.832 8.672 8.832 22.72 0.096 31.232l-343.264 335.968c-3.981 3.912-9.445 6.328-15.472 6.328-6.187 0-11.779-2.544-15.788-6.644l-0.004-0.004-146.176-150.464z"></path>
</svg>
