<!-- Generated by IcoMoon.io -->
<svg version="1.1" xmlns="http://www.w3.org/2000/svg" width="1024" height="1024" viewBox="0 0 1024 1024">
<title></title>
<g id="icomoon-ignore">
</g>
<path d="M845.605 675.84c27.977 39.589 60.069 65.189 96.256 76.8-15.707 48.457-40.613 98.981-74.752 151.552-52.571 79.177-104.448 118.784-155.648 118.784-19.109 0-47.451-6.491-84.992-19.456-34.816-12.983-65.189-19.456-91.136-19.456s-54.619 6.821-86.016 20.48c-32.768 12.983-59.739 19.456-80.896 19.456-61.44 0-121.856-52.224-181.248-156.672-59.392-103.077-89.088-204.453-89.088-304.128 0-92.16 22.528-167.589 67.584-226.304 46.427-58.697 103.771-88.064 172.032-88.064 15.013 0 31.744 1.883 50.176 5.632s37.541 10.752 57.344 20.992c21.157 11.611 38.583 19.621 52.224 24.064 13.659 4.443 24.229 6.656 31.744 6.656 8.869 0 22.528-2.048 40.96-6.144s36.864-11.611 55.296-22.528c19.803-10.917 36.864-19.109 51.2-24.576 13.062-5.179 28.195-8.185 44.029-8.192h0.003c47.781 0 90.789 12.983 129.024 38.912 20.48 13.659 41.307 33.792 62.464 60.416-31.397 27.301-54.272 51.2-68.608 71.68-26.624 38.217-39.936 79.872-39.936 124.928 0 49.829 13.989 94.903 41.984 135.168zM639.781 197.632c-23.899 22.528-45.733 37.211-65.536 44.032-6.821 2.048-15.543 3.931-26.112 5.632-10.587 1.701-22.693 3.237-36.352 4.608 0.677-60.069 16.384-111.963 47.104-155.648 30.72-43.703 81.243-73.728 151.552-90.112 1.371 6.821 2.377 11.611 3.072 14.336v11.264c0 24.576-5.797 52.224-17.408 82.944-12.288 30.043-31.067 57.691-56.32 82.944z"></path>
</svg>
