<!-- Generated by IcoMoon.io -->
<svg version="1.1" xmlns="http://www.w3.org/2000/svg" width="1024" height="1024" viewBox="0 0 1024 1024">
<title></title>
<g id="icomoon-ignore">
</g>
<path d="M968.128 851.136l-64.896-73.056c-3.36-3.776-7.136-6.816-10.912-9.984 60.725-79.159 97.312-179.613 97.312-288.611 0-0.224 0-0.447 0-0.671v0.034c0-264.48-214.368-478.848-478.848-478.848s-478.752 214.368-478.752 478.752c0 264.48 214.368 478.848 478.848 478.848 86.208 0 166.976-22.912 236.896-62.752 2.958 4.883 6.052 9.107 9.472 13.041l-0.096-0.113 64.896 73.056c17.864 18.935 43.126 30.723 71.141 30.723 53.974 0 97.728-43.754 97.728-97.728 0-23.93-8.601-45.851-22.88-62.84l0.122 0.15zM510.848 887.328c-225.28 0-408.544-183.296-408.544-408.544s183.296-408.448 408.544-408.448c225.28 0 408.448 183.296 408.448 408.448s-183.296 408.544-408.448 408.544zM913.216 936.416c-4.77 4.289-11.113 6.912-18.069 6.912-0.027 0-0.053 0-0.080 0h0.004c-0.035 0-0.075 0-0.116 0-8.094 0-15.362-3.54-20.339-9.156l-0.025-0.028-64.896-73.056c-1.536-1.728-2.336-3.776-3.36-5.696 13.856-10.912 27.008-22.4 39.52-34.656 1.774 1.183 3.308 2.524 4.651 4.039l0.021 0.025 64.896 73.056c4.306 4.788 6.94 11.154 6.94 18.136 0 8.092-3.538 15.358-9.152 20.335l-0.028 0.025zM510.848 136.736c-188.576 0-342.016 153.44-342.016 342.016s153.344 342.144 342.016 342.144c188.704 0 342.016-153.44 342.016-342.144s-153.44-342.016-342.016-342.016zM510.848 747.936c-148.448 0-269.184-120.736-269.184-269.184s120.736-269.184 269.184-269.184c148.448 0 269.184 120.832 269.184 269.184s-120.832 269.184-269.184 269.184zM636.896 479.36c19.36 0 35.136-15.776 35.136-35.136s-15.808-35.136-35.136-35.136h-70.4l55.424-55.424c13.664-13.664 13.664-36.064 0-49.728s-36.064-13.664-49.728 0l-61.344 61.248-61.344-61.344c-13.664-13.664-36.064-13.664-49.728 0s-13.664 36.064 0 49.728l55.424 55.424h-70.4c-19.36 0-35.136 15.776-35.136 35.136s15.776 35.136 35.136 35.136h90.88v27.392h-90.88c-19.36 0-35.136 15.808-35.136 35.136s15.776 35.136 35.136 35.136h90.88v90.88c0 19.36 15.776 35.136 35.136 35.136s35.136-15.808 35.136-35.136v-90.88h90.88c19.36 0 35.136-15.808 35.136-35.136s-15.808-35.136-35.136-35.136h-90.88v-27.392h90.88v0.096z"></path>
</svg>
